Coordinates
version=1
nRows=14
nColumns=32
inDegrees=yes

Units are S.I. units (second, meters, Newtons, ...)
If the header above contains a line with 'inDegrees', this indicates whether rotational values are in degrees (yes) or radians (no).

endheader
time	pelvis_tilt	pelvis_list	pelvis_rotation	pelvis_tx	pelvis_ty	pelvis_tz	hip_flexion_r	hip_adduction_r	hip_rotation_r	knee_angle_r	knee_adduction_r	med_cond_adduction_r	lat_cond_adduction_r	patella_r_constrained_knee_angle	ankle_angle_r	subtalar_angle_r	mtp_angle_r	hip_flexion_l	hip_adduction_l	hip_rotation_l	knee_angle_l	knee_adduction_l	med_cond_adduction_l	lat_cond_adduction_l	patella_l_constrained_knee_angle	ankle_angle_l	subtalar_angle_l	mtp_angle_l	lumbar_extension	lumbar_bending	lumbar_rotation
      0.75500000	    -18.01242018	     -0.84071509	     -2.66231624	      0.17484223	      0.69509209	     -1.20072226	     67.41972111	    -34.90653178	     -9.90961540	    -79.25373143	      3.48612806	      0.00000000	      0.00000000	     -1.38323856	     19.86272824	     13.29942386	     -0.00000000	     68.04106969	    -44.15507065	    -12.90899456	    -79.02998634	      3.07744652	      0.00000000	      0.00000000	     -1.37933347	     16.97215899	     19.44055238	      0.00000000	     -7.09363545	      1.48154864	      1.03638451
      0.76000000	    -17.99976122	     -0.77296826	     -2.42959913	      0.17475729	      0.69289146	     -1.20132901	     67.72183596	    -35.41252949	     -9.82503666	    -79.73394512	      3.48951733	      0.00000000	      0.00000000	     -1.39161987	     20.01991438	     13.75849386	      0.00000000	     68.45689854	    -43.95009517	    -12.79301152	    -79.48866867	      2.86610788	     -0.00000000	     -0.00000000	     -1.38733899	     17.12117027	     19.44281819	     -0.00000000	     -7.25093245	      1.31955703	      0.58517980
      0.76500000	    -17.92524438	     -0.82356136	     -2.52654323	      0.17464048	      0.69095201	     -1.20119160	     67.94215856	    -35.41437565	     -9.79935878	    -80.16023481	      3.37709309	      0.00000000	      0.00000000	     -1.39906003	     20.22994745	     13.86862955	     -0.00000000	     68.75266839	    -44.20756771	    -12.57392100	    -79.92062184	      2.84615697	     -0.00000000	     -0.00000000	     -1.39487799	     17.21901141	     19.45284625	     -0.00000000	     -7.52576715	      1.30103951	      0.59687549
      0.77000000	    -17.91304977	     -0.81802572	     -2.58497943	      0.17454037	      0.68882969	     -1.20114949	     68.27573372	    -35.47821464	     -9.70284383	    -80.58179342	      3.26647104	     -0.00000000	     -0.00000000	     -1.40641761	     20.35633057	     13.93017291	     -0.00000000	     69.09524047	    -44.39726046	    -12.44689926	    -80.38193640	      2.77771664	      0.00000000	      0.00000000	     -1.40292945	     17.34789131	     19.46648942	      0.00000000	     -7.71358467	      1.32235749	      0.70425560
      0.77500000	    -17.86146486	     -0.79764312	     -2.60245849	      0.17444708	      0.68665741	     -1.20113099	     68.57547613	    -35.66393853	     -9.56914533	    -81.05472068	      3.25836466	     -0.00000000	      0.00000000	     -1.41467175	     20.61917470	     14.21253578	      0.00000000	     69.40166545	    -44.54521454	    -12.25568647	    -80.83043056	      2.77634198	      0.00000000	      0.00000000	     -1.41075715	     17.47848688	     19.46999827	     -0.00000000	     -7.93434389	      1.23259089	      0.71483021
      0.78000000	    -17.82492360	     -0.89586931	     -2.59177525	      0.17436730	      0.68457616	     -1.20135602	     68.76742424	    -35.75201955	     -9.66507024	    -81.45863624	      3.09564599	     -0.00000000	     -0.00000000	     -1.42172141	     20.72163023	     14.32632032	     -0.00000000	     69.86384745	    -44.67570704	    -11.95015804	    -81.31028603	      2.66489293	      0.00000000	      0.00000000	     -1.41913221	     17.63834664	     19.48088536	     -0.00000000	     -8.15825626	      1.60346420	      1.01418784
      0.78500000	    -17.77417617	     -1.04194359	     -2.47111873	      0.17432116	      0.68247099	     -1.20180703	     68.86279397	    -35.98877333	     -9.94348878	    -81.88465350	      2.91651839	     -0.00000000	     -0.00000000	     -1.42915681	     20.90069502	     14.56989250	      0.00000000	     70.41223601	    -44.71710345	    -11.46810300	    -81.78551502	      2.60484986	      0.00000000	      0.00000000	     -1.42742652	     17.75875186	     19.48655307	      0.00000000	     -8.37171665	      1.57883061	      0.47927791
      0.79000000	    -17.75158702	     -1.16751889	     -2.40888003	      0.17425435	      0.68026914	     -1.20213225	     69.03341988	    -36.15733830	    -10.10974254	    -82.30976102	      2.78078313	      0.00000000	      0.00000000	     -1.43657634	     21.06535544	     14.73528648	     -0.00000000	     70.95794991	    -44.80659986	    -11.03563102	    -82.26777785	      2.53913608	      0.00000000	      0.00000000	     -1.43584359	     17.91630705	     19.49374748	     -0.00000000	     -8.55169878	      1.71723591	      0.33350953
      0.79500000	    -17.64358374	     -1.16033278	     -2.39176948	      0.17428611	      0.67831837	     -1.20225839	     69.22842383	    -36.34531515	    -10.13362287	    -82.74035324	      2.60724111	      0.00000000	      0.00000000	     -1.44409159	     21.24004548	     14.95333783	     -0.00000000	     71.20298153	    -44.91043347	    -10.98537665	    -82.70780475	      2.37326038	     -0.00000000	     -0.00000000	     -1.44352351	     18.04927319	     19.50284922	     -0.00000000	     -8.84091963	      1.69558168	      0.29742932
      0.80000000	    -17.58633247	     -1.12119506	     -2.40074421	      0.17426103	      0.67621157	     -1.20229118	     69.53492354	    -36.50223019	    -10.03704571	    -83.19158471	      2.47613208	      0.00000000	      0.00000000	     -1.45196706	     21.41329903	     15.14899879	      0.00000000	     71.47658636	    -45.02350357	    -10.95231087	    -83.14835084	      2.22044153	     -0.00000000	     -0.00000000	     -1.45121249	     18.19743820	     19.51154099	      0.00000000	     -9.05191314	      1.64273914	      0.28153670
      0.80500000	    -17.50186862	     -1.07573769	     -2.41157567	      0.17428348	      0.67415134	     -1.20231690	     69.81321424	    -36.67323391	     -9.98047006	    -83.63458320	      2.31085726	     -0.00000000	     -0.00000000	     -1.45969885	     21.57875212	     15.31908615	      0.00000000	     71.70883536	    -45.14800329	    -10.96931398	    -83.59289317	      2.04871452	      0.00000000	      0.00000000	     -1.45897122	     18.30243945	     19.51996913	      0.00000000	     -9.30033590	      1.59135877	      0.33505283
      0.81000000	    -17.47382297	     -1.04035311	     -2.33193480	      0.17427605	      0.67184202	     -1.20256535	     70.14398343	    -36.94730447	     -9.91135737	    -84.10839373	      2.18030057	     -0.00000000	     -0.00000000	     -1.46796840	     21.77573414	     15.55572863	      0.00000000	     72.08978814	    -45.16399454	    -10.84033449	    -84.07183177	      1.91813474	      0.00000000	      0.00000000	     -1.46733027	     18.41273625	     19.52373574	      0.00000000	     -9.45259624	      1.52986715	      0.18833744
      0.81500000	    -17.49130641	     -0.96884157	     -2.28404131	      0.17423889	      0.66937274	     -1.20269847	     70.58455406	    -37.19908021	     -9.72160176	    -84.60847752	      2.10560477	      0.00000000	      0.00000000	     -1.47669651	     21.94286621	     15.77873588	     -0.00000000	     72.48270015	    -45.20002137	    -10.77250667	    -84.55008977	      1.77462092	     -0.00000000	     -0.00000000	     -1.47567745	     18.52528662	     19.52833577	     -0.00000000	     -9.53598518	      1.39744715	      0.05077616
      0.82000000	    -17.31816063	     -1.10173905	     -2.32612484	      0.17431793	      0.66761389	     -1.20277669	     70.58223936	    -37.22438757	    -10.03303137	    -84.98613582	      1.78248134	     -0.00000000	     -0.00000000	     -1.48328789	     22.10852269	     15.84011640	      0.00000000	     72.76465017	    -45.43289748	    -10.56300643	    -84.97587631	      1.60315728	      0.00000000	      0.00000000	     -1.48310883	     18.70768754	     19.54028615	      0.00000000	     -9.91308851	      1.56135759	      0.09281874
